<svg width="25" height="25" viewBox="0 0 25 25" fill="none" xmlns="http://www.w3.org/2000/svg">
<path d="M20.7691 10.2039L13.2691 17.7039C13.1994 17.7736 13.1167 17.8289 13.0257 17.8667C12.9346 17.9044 12.837 17.9239 12.7385 17.9239C12.6399 17.9239 12.5423 17.9044 12.4512 17.8667C12.3602 17.8289 12.2775 17.7736 12.2078 17.7039L4.70783 10.2039C4.5671 10.0632 4.48804 9.87229 4.48804 9.67327C4.48804 9.47425 4.5671 9.28337 4.70783 9.14264C4.84856 9.00191 5.03943 8.92285 5.23845 8.92285C5.43748 8.92285 5.62835 9.00191 5.76908 9.14264L12.7385 16.113L19.7078 9.14264C19.7775 9.07296 19.8602 9.01769 19.9513 8.97997C20.0423 8.94226 20.1399 8.92285 20.2385 8.92285C20.337 8.92285 20.4346 8.94226 20.5256 8.97997C20.6167 9.01769 20.6994 9.07296 20.7691 9.14264C20.8388 9.21233 20.894 9.29505 20.9317 9.3861C20.9695 9.47714 20.9889 9.57472 20.9889 9.67327C20.9889 9.77181 20.9695 9.8694 20.9317 9.96044C20.894 10.0515 20.8388 10.1342 20.7691 10.2039Z" fill="#FFDE59"/>
</svg>
