<svg width="25" height="24" viewBox="0 0 25 24" fill="none" xmlns="http://www.w3.org/2000/svg">
<path d="M19.669 18.211C19.7387 18.2807 19.7939 18.3634 19.8317 18.4545C19.8694 18.5455 19.8888 18.6431 19.8888 18.7416C19.8888 18.8402 19.8694 18.9378 19.8317 19.0288C19.7939 19.1198 19.7387 19.2026 19.669 19.2723C19.5993 19.3419 19.5166 19.3972 19.4255 19.4349C19.3345 19.4726 19.2369 19.492 19.1384 19.492C19.0398 19.492 18.9422 19.4726 18.8512 19.4349C18.7601 19.3972 18.6774 19.3419 18.6077 19.2723L12.3884 13.0519L6.16898 19.2723C6.02825 19.413 5.83738 19.492 5.63836 19.492C5.43933 19.492 5.24846 19.413 5.10773 19.2723C4.967 19.1315 4.88794 18.9407 4.88794 18.7416C4.88794 18.5426 4.967 18.3517 5.10773 18.211L11.328 11.9916L5.10773 5.77225C4.967 5.63152 4.88794 5.44065 4.88794 5.24163C4.88794 5.0426 4.967 4.85173 5.10773 4.711C5.24846 4.57027 5.43933 4.49121 5.63836 4.49121C5.83738 4.49121 6.02825 4.57027 6.16898 4.711L12.3884 10.9313L18.6077 4.711C18.7485 4.57027 18.9393 4.49121 19.1384 4.49121C19.3374 4.49121 19.5283 4.57027 19.669 4.711C19.8097 4.85173 19.8888 5.0426 19.8888 5.24163C19.8888 5.44065 19.8097 5.63152 19.669 5.77225L13.4487 11.9916L19.669 18.211Z" fill="#FFDE59"/>
</svg>
