<svg width="246" height="210" viewBox="0 0 246 210" fill="none" xmlns="http://www.w3.org/2000/svg">
<path d="M215.75 70.8521C215.75 72.4566 215.113 73.9954 213.978 75.13C212.844 76.2646 211.305 76.902 209.7 76.902H185.501C183.896 76.902 182.357 76.2646 181.223 75.13C180.088 73.9954 179.451 72.4566 179.451 70.8521C179.451 69.2475 180.088 67.7087 181.223 66.5742C182.357 65.4396 183.896 64.8022 185.501 64.8022H209.7C211.305 64.8022 212.844 65.4396 213.978 66.5742C215.113 67.7087 215.75 69.2475 215.75 70.8521ZM209.7 89.0018H185.501C183.896 89.0018 182.357 89.6392 181.223 90.7738C180.088 91.9084 179.451 93.4472 179.451 95.0517C179.451 96.6563 180.088 98.1951 181.223 99.3297C182.357 100.464 183.896 101.102 185.501 101.102H209.7C211.305 101.102 212.844 100.464 213.978 99.3297C215.113 98.1951 215.75 96.6563 215.75 95.0517C215.75 93.4472 215.113 91.9084 213.978 90.7738C212.844 89.6392 211.305 89.0018 209.7 89.0018ZM239.95 52.7024V173.701C239.95 176.91 238.675 179.987 236.406 182.256C234.137 184.526 231.059 185.8 227.85 185.8H167.351C164.142 185.8 161.064 184.526 158.795 182.256C156.526 179.987 155.251 176.91 155.251 173.701V161.601H125.002V173.701H137.101C138.706 173.701 140.245 174.338 141.379 175.473C142.514 176.607 143.151 178.146 143.151 179.75C143.151 181.355 142.514 182.894 141.379 184.028C140.245 185.163 138.706 185.8 137.101 185.8H100.802C99.1975 185.8 97.6586 185.163 96.5241 184.028C95.3895 182.894 94.7521 181.355 94.7521 179.75C94.7521 178.146 95.3895 176.607 96.5241 175.473C97.6586 174.338 99.1975 173.701 100.802 173.701H112.902V161.601H76.6024C71.7888 161.601 67.1723 159.689 63.7686 156.285C60.3648 152.881 58.4526 148.265 58.4526 143.451V89.0018C58.4526 84.1882 60.3648 79.5717 63.7686 76.168C67.1723 72.7643 71.7888 70.8521 76.6024 70.8521H155.251V52.7024C155.251 49.4933 156.526 46.4156 158.795 44.1465C161.064 41.8773 164.142 40.6025 167.351 40.6025H227.85C231.059 40.6025 234.137 41.8773 236.406 44.1465C238.675 46.4156 239.95 49.4933 239.95 52.7024ZM155.251 149.501V82.9519H76.6024C74.9978 82.9519 73.459 83.5893 72.3244 84.7239C71.1899 85.8585 70.5525 87.3973 70.5525 89.0018V143.451C70.5525 145.056 71.1899 146.594 72.3244 147.729C73.459 148.864 74.9978 149.501 76.6024 149.501H155.251ZM227.85 173.701V52.7024H167.351V173.701H227.85ZM197.601 143.451C195.806 143.451 194.051 143.983 192.559 144.98C191.066 145.978 189.903 147.395 189.216 149.053C188.53 150.711 188.35 152.536 188.7 154.296C189.05 156.057 189.915 157.674 191.184 158.943C192.453 160.212 194.07 161.076 195.83 161.426C197.59 161.777 199.415 161.597 201.073 160.91C202.732 160.223 204.149 159.06 205.146 157.568C206.143 156.075 206.675 154.321 206.675 152.526C206.675 150.119 205.719 147.811 204.017 146.109C202.316 144.407 200.007 143.451 197.601 143.451Z" fill="#05A3FF"/>
<g filter="url(#filter0_d_1627_1113)">
<path d="M107.668 35.5515H29.4618C27.3876 35.5515 25.3984 36.3755 23.9317 37.8421C22.4651 39.3088 21.6411 41.298 21.6411 43.3722V70.7444C21.6411 96.5134 34.115 112.13 44.58 120.694C55.8515 129.912 67.0644 133.046 67.5532 133.173C68.2253 133.356 68.934 133.356 69.6061 133.173C70.0949 133.046 81.2931 129.912 92.5792 120.694C103.015 112.13 115.489 96.5134 115.489 70.7444V43.3722C115.489 41.298 114.665 39.3088 113.198 37.8421C111.732 36.3755 109.742 35.5515 107.668 35.5515ZM107.668 70.7444C107.668 88.8639 100.991 103.572 87.8233 114.452C82.0912 119.172 75.572 122.846 68.565 125.303C61.6496 122.888 55.211 119.28 49.5413 114.643C36.2168 103.743 29.4618 88.9763 29.4618 70.7444V43.3722H107.668V70.7444Z" fill="url(#paint0_linear_1627_1113)"/>
</g>
<defs>
<filter id="filter0_d_1627_1113" x="0.941113" y="0.851513" width="193.248" height="197.158" filterUnits="userSpaceOnUse" color-interpolation-filters="sRGB">
<feFlood flood-opacity="0" result="BackgroundImageFix"/>
<feColorMatrix in="SourceAlpha" type="matrix" values="0 0 0 0 0 0 0 0 0 0 0 0 0 0 0 0 0 0 127 0" result="hardAlpha"/>
<feOffset dx="29" dy="15"/>
<feGaussianBlur stdDeviation="24.85"/>
<feComposite in2="hardAlpha" operator="out"/>
<feColorMatrix type="matrix" values="0 0 0 0 0 0 0 0 0 0 0 0 0 0 0 0 0 0 1 0"/>
<feBlend mode="normal" in2="BackgroundImageFix" result="effect1_dropShadow_1627_1113"/>
<feBlend mode="normal" in="SourceGraphic" in2="effect1_dropShadow_1627_1113" result="shape"/>
</filter>
<linearGradient id="paint0_linear_1627_1113" x1="68.565" y1="35.5515" x2="68.565" y2="133.31" gradientUnits="userSpaceOnUse">
<stop stop-color="#38B6FF"/>
<stop offset="1" stop-color="#2546BF"/>
</linearGradient>
</defs>
</svg>
