<svg width="32" height="28" viewBox="0 0 32 28" fill="none" xmlns="http://www.w3.org/2000/svg">
<path d="M16 9.875C15.1842 9.875 14.3866 10.1169 13.7083 10.5702C13.0299 11.0234 12.5012 11.6677 12.189 12.4214C11.8768 13.1752 11.7951 14.0046 11.9543 14.8047C12.1134 15.6049 12.5063 16.3399 13.0832 16.9168C13.6601 17.4937 14.3951 17.8866 15.1953 18.0457C15.9954 18.2049 16.8248 18.1232 17.5786 17.811C18.3323 17.4988 18.9766 16.9701 19.4298 16.2917C19.8831 15.6134 20.125 14.8158 20.125 14C20.1238 12.9064 19.6888 11.8579 18.9154 11.0846C18.1421 10.3112 17.0936 9.87624 16 9.875ZM16 17.375C15.3325 17.375 14.68 17.1771 14.125 16.8062C13.5699 16.4354 13.1374 15.9083 12.8819 15.2916C12.6265 14.6749 12.5596 13.9963 12.6898 13.3416C12.8201 12.6869 13.1415 12.0855 13.6135 11.6135C14.0855 11.1415 14.6869 10.8201 15.3416 10.6898C15.9963 10.5596 16.6749 10.6265 17.2916 10.8819C17.9083 11.1374 18.4354 11.5699 18.8062 12.125C19.1771 12.68 19.375 13.3325 19.375 14C19.375 14.8951 19.0194 15.7535 18.3865 16.3865C17.7535 17.0194 16.8951 17.375 16 17.375ZM20.5 4.625H11.5C10.2075 4.62649 8.96842 5.14058 8.0545 6.0545C7.14058 6.96842 6.62649 8.20753 6.625 9.5V18.5C6.62649 19.7925 7.14058 21.0316 8.0545 21.9455C8.96842 22.8594 10.2075 23.3735 11.5 23.375H20.5C21.7925 23.3735 23.0316 22.8594 23.9455 21.9455C24.8594 21.0316 25.3735 19.7925 25.375 18.5V9.5C25.3735 8.20753 24.8594 6.96842 23.9455 6.0545C23.0316 5.14058 21.7925 4.62649 20.5 4.625ZM24.625 18.5C24.6238 19.5936 24.1888 20.6421 23.4154 21.4154C22.6421 22.1888 21.5936 22.6238 20.5 22.625H11.5C10.4064 22.6238 9.35787 22.1888 8.58455 21.4154C7.81124 20.6421 7.37624 19.5936 7.375 18.5V9.5C7.37624 8.40636 7.81124 7.35787 8.58455 6.58455C9.35787 5.81124 10.4064 5.37624 11.5 5.375H20.5C21.5936 5.37624 22.6421 5.81124 23.4154 6.58455C24.1888 7.35787 24.6238 8.40636 24.625 9.5V18.5ZM21.625 9.125C21.625 9.27334 21.581 9.41834 21.4986 9.54168C21.4162 9.66501 21.2991 9.76114 21.162 9.81791C21.025 9.87468 20.8742 9.88953 20.7287 9.86059C20.5832 9.83165 20.4496 9.76022 20.3447 9.65533C20.2398 9.55044 20.1684 9.4168 20.1394 9.27132C20.1105 9.12583 20.1253 8.97503 20.1821 8.83799C20.2389 8.70094 20.335 8.58381 20.4583 8.5014C20.5817 8.41899 20.7267 8.375 20.875 8.375C21.0739 8.375 21.2647 8.45402 21.4053 8.59467C21.546 8.73532 21.625 8.92609 21.625 9.125Z" fill="#38B6FF"/>
</svg>
