<svg width="32" height="31" viewBox="0 0 32 31" fill="none" xmlns="http://www.w3.org/2000/svg">
<path d="M25 8.2085H7C6.90054 8.2085 6.80516 8.248 6.73484 8.31833C6.66451 8.38866 6.625 8.48404 6.625 8.5835V21.3335C6.625 21.6319 6.74353 21.918 6.9545 22.129C7.16548 22.34 7.45163 22.4585 7.75 22.4585H24.25C24.5484 22.4585 24.8345 22.34 25.0455 22.129C25.2565 21.918 25.375 21.6319 25.375 21.3335V8.5835C25.375 8.48404 25.3355 8.38866 25.2652 8.31833C25.1948 8.248 25.0995 8.2085 25 8.2085ZM24.0363 8.9585L16 16.3244L7.96375 8.9585H24.0363ZM24.25 21.7085H7.75C7.65054 21.7085 7.55516 21.669 7.48484 21.5987C7.41451 21.5283 7.375 21.433 7.375 21.3335V9.43568L15.7469 17.1147C15.816 17.178 15.9063 17.2131 16 17.2131C16.0937 17.2131 16.184 17.178 16.2531 17.1147L24.625 9.43568V21.3335C24.625 21.433 24.5855 21.5283 24.5152 21.5987C24.4448 21.669 24.3495 21.7085 24.25 21.7085Z" fill="#38B6FF"/>
</svg>
