<svg width="48" height="49" viewBox="0 0 48 49" fill="none" xmlns="http://www.w3.org/2000/svg">
<path d="M21 30.75H27L25.85 24.3C26.5167 23.9667 27.0417 23.4833 27.425 22.85C27.8083 22.2167 28 21.5167 28 20.75C28 19.65 27.6083 18.7083 26.825 17.925C26.0417 17.1417 25.1 16.75 24 16.75C22.9 16.75 21.9583 17.1417 21.175 17.925C20.3917 18.7083 20 19.65 20 20.75C20 21.5167 20.1917 22.2167 20.575 22.85C20.9583 23.4833 21.4833 23.9667 22.15 24.3L21 30.75ZM24 44.75C19.3667 43.5833 15.5417 40.925 12.525 36.775C9.50833 32.625 8 28.0167 8 22.95V10.75L24 4.75L40 10.75V22.95C40 28.0167 38.4917 32.625 35.475 36.775C32.4583 40.925 28.6333 43.5833 24 44.75ZM24 40.55C27.4667 39.45 30.3333 37.25 32.6 33.95C34.8667 30.65 36 26.9833 36 22.95V13.5L24 9L12 13.5V22.95C12 26.9833 13.1333 30.65 15.4 33.95C17.6667 37.25 20.5333 39.45 24 40.55Z" fill="url(#paint0_linear_1627_1061)"/>
<defs>
<linearGradient id="paint0_linear_1627_1061" x1="28.1181" y1="-8.60107" x2="-7.89849" y2="29.8632" gradientUnits="userSpaceOnUse">
<stop stop-color="#FFDE59"/>
<stop offset="1" stop-color="#38B6FF"/>
</linearGradient>
</defs>
</svg>
