<svg width="32" height="28" viewBox="0 0 32 28" fill="none" xmlns="http://www.w3.org/2000/svg">
<path d="M21.42 15.5811L18.42 14.0811C18.361 14.0517 18.2952 14.0384 18.2294 14.0425C18.1636 14.0466 18.1 14.068 18.045 14.1046L16.485 15.1452C15.6275 14.7339 14.936 14.0424 14.5247 13.1849L15.5654 11.6249C15.6019 11.57 15.6233 11.5064 15.6274 11.4405C15.6315 11.3747 15.6182 11.3089 15.5888 11.2499L14.0888 8.24987C14.0577 8.18725 14.0097 8.13458 13.9502 8.0978C13.8907 8.06103 13.8222 8.04161 13.7522 8.04175C12.8571 8.04175 11.9987 8.39733 11.3657 9.03026C10.7328 9.6632 10.3772 10.5216 10.3772 11.4167C10.3795 13.5046 11.2099 15.5064 12.6862 16.9827C14.1626 18.4591 16.1643 19.2895 18.2522 19.2917C19.1473 19.2917 20.0058 18.9362 20.6387 18.3032C21.2717 17.6703 21.6272 16.8119 21.6272 15.9167C21.6273 15.8471 21.6079 15.7788 21.5713 15.7195C21.5347 15.6602 21.4823 15.6123 21.42 15.5811ZM18.2522 18.5417C16.3632 18.5398 14.5521 17.7885 13.2163 16.4527C11.8805 15.1169 11.1292 13.3058 11.1272 11.4167C11.1271 10.7598 11.3734 10.1266 11.8174 9.64233C12.2614 9.15807 12.8708 8.85791 13.5254 8.80112L14.8191 11.3896L13.7879 12.9402C13.7535 12.9913 13.7323 13.0502 13.726 13.1115C13.7198 13.1728 13.7288 13.2347 13.7522 13.2917C14.2505 14.4762 15.1927 15.4185 16.3772 15.9167C16.4343 15.9405 16.4963 15.9497 16.5578 15.9436C16.6193 15.9376 16.6784 15.9164 16.7297 15.8821L18.2804 14.8508L20.8688 16.1446C20.8118 16.7991 20.5114 17.4084 20.0269 17.8523C19.5425 18.2961 18.9092 18.5421 18.2522 18.5417ZM16.0022 4.29175C14.3701 4.29144 12.7662 4.71723 11.3492 5.52699C9.93209 6.33675 8.75097 7.50242 7.92264 8.9087C7.0943 10.315 6.64745 11.9132 6.62628 13.5451C6.6051 15.1771 7.01035 16.7863 7.80192 18.2136L6.68629 21.5596C6.62019 21.7578 6.6106 21.9705 6.65859 22.1739C6.70658 22.3772 6.81026 22.5632 6.95802 22.711C7.10577 22.8587 7.29175 22.9624 7.49512 23.0104C7.69848 23.0584 7.9112 23.0488 8.10942 22.9827L11.4554 21.8671C12.707 22.5606 14.1007 22.9584 15.5298 23.03C16.9589 23.1016 18.3855 22.8452 19.7002 22.2803C21.0148 21.7154 22.1828 20.857 23.1145 19.771C24.0462 18.685 24.7169 17.4001 25.0753 16.0148C25.4337 14.6295 25.4702 13.1806 25.1821 11.779C24.8939 10.3774 24.2888 9.06035 23.413 7.92877C22.5372 6.79718 21.414 5.88109 20.1295 5.25067C18.8449 4.62024 17.4331 4.29223 16.0022 4.29175ZM16.0022 22.2917C14.4858 22.2922 12.996 21.8928 11.6832 21.1339C11.6261 21.1011 11.5615 21.0836 11.4957 21.0833C11.4552 21.0833 11.4149 21.0899 11.3766 21.103L7.87223 22.2711C7.80616 22.2932 7.73525 22.2964 7.66746 22.2804C7.59967 22.2644 7.53768 22.2298 7.48843 22.1805C7.43918 22.1313 7.40462 22.0693 7.38862 22.0015C7.37262 21.9337 7.37582 21.8628 7.39786 21.7967L8.56598 18.2924C8.58283 18.242 8.58879 18.1886 8.58345 18.1358C8.57812 18.0829 8.56162 18.0318 8.53504 17.9858C7.58414 16.3421 7.20225 14.4306 7.44862 12.5477C7.69499 10.6649 8.55585 8.91592 9.89764 7.57224C11.2394 6.22856 12.9872 5.36525 14.8697 5.11623C16.7522 4.86721 18.6643 5.24642 20.3093 6.19501C21.9543 7.1436 23.2403 8.60855 23.9677 10.3626C24.6952 12.1167 24.8234 14.0618 24.3326 15.8961C23.8418 17.7305 22.7593 19.3517 21.2531 20.508C19.7469 21.6644 17.9011 22.2914 16.0022 22.2917Z" fill="#38B6FF"/>
</svg>
